<svg width="24" height="24" viewBox="0 0 24 24" fill="none" xmlns="http://www.w3.org/2000/svg">
<rect x="0.3" y="0.3" width="23.4" height="23.4" rx="5.7" stroke="#A3A3A3" stroke-width="0.6"/>
<path d="M7.62424 12.1757C7.38993 11.9414 7.01003 11.9414 6.77571 12.1757C6.5414 12.41 6.5414 12.7899 6.77571 13.0243L9.77571 16.0243C10.01 16.2586 10.3899 16.2586 10.6242 16.0243L17.2242 9.42426C17.4586 9.18994 17.4586 8.81004 17.2242 8.57573C16.9899 8.34142 16.61 8.34142 16.3757 8.57573L10.2 14.7515L7.62424 12.1757Z" fill="#656565"/>
<mask id="mask0_1_85" style="mask-type:luminance" maskUnits="userSpaceOnUse" x="6" y="8" width="12" height="9">
<path d="M7.62424 12.1757C7.38993 11.9414 7.01003 11.9414 6.77571 12.1757C6.5414 12.41 6.5414 12.7899 6.77571 13.0243L9.77571 16.0243C10.01 16.2586 10.3899 16.2586 10.6242 16.0243L17.2242 9.42426C17.4586 9.18994 17.4586 8.81004 17.2242 8.57573C16.9899 8.34142 16.61 8.34142 16.3757 8.57573L10.2 14.7515L7.62424 12.1757Z" fill="white"/>
</mask>
<g mask="url(#mask0_1_85)">
</g>
</svg>
